<?xml version="1.0" standalone="no"?>
<!DOCTYPE svg PUBLIC "-//W3C//DTD SVG 20010904//EN"
 "http://www.w3.org/TR/2001/REC-SVG-20010904/DTD/svg10.dtd">
<svg version="1.0" xmlns="http://www.w3.org/2000/svg"
 width="929.000000pt" height="407.000000pt" viewBox="0 0 929.000000 407.000000"
 preserveAspectRatio="xMidYMid meet">

<g transform="translate(0.000000,407.000000) scale(0.100000,-0.100000)"
fill="#000000" stroke="none">
<path d="M2323 4063 c1281 -2 3373 -2 4650 0 1277 1 230 2 -2328 2 -2557 0
-3602 -1 -2322 -2z"/>
<path d="M2193 3683 c32 -4 37 -7 31 -21 -31 -70 -56 -165 -61 -232 l-6 -80
-63 0 c-52 0 -64 3 -64 16 0 10 5 14 15 10 13 -5 14 -2 2 22 -10 20 -11 38 -4
72 9 39 11 42 16 21 6 -24 31 -42 31 -23 0 6 9 14 20 17 11 3 20 13 20 21 0 8
4 14 9 14 6 0 8 9 6 20 -2 11 1 22 7 26 5 4 -2 14 -18 25 -15 10 -31 16 -36
13 -4 -3 -8 -3 -8 1 0 8 33 59 45 68 17 14 -87 -3 -143 -24 -219 -80 -327
-218 -292 -373 6 -26 22 -63 36 -82 l26 -34 -277 0 c-315 0 -307 3 -185 -75
122 -79 267 -133 460 -174 141 -29 279 -41 488 -41 438 0 755 77 982 239 l65
46 -277 3 c-153 1 -278 6 -278 10 0 4 6 15 12 23 7 7 -10 -7 -37 -32 -28 -25
-59 -52 -69 -59 -17 -14 -18 -13 -12 6 8 27 -2 54 -20 54 -17 0 -17 0 1 38 9
16 21 53 28 81 l12 51 67 0 c77 0 80 -4 53 -79 -18 -51 -11 -54 10 -5 39 94 5
217 -83 294 -55 49 -164 104 -247 125 -97 25 -97 25 -56 -56 25 -51 32 -73 24
-76 -7 -3 -14 -14 -14 -26 -1 -17 -3 -15 -9 8 -7 27 -8 27 -9 6 0 -13 -4 -22
-7 -18 -3 3 -17 2 -30 -3 -22 -9 -24 -6 -34 33 -17 64 -42 127 -53 134 -7 4
-8 -1 -2 -13 47 -114 60 -174 38 -181 -7 -3 -13 0 -13 7 0 6 5 8 10 5 6 -3 10
-2 10 4 0 9 -31 31 -44 31 -3 0 -17 -18 -31 -40 -23 -37 -24 -42 -10 -56 13
-14 15 -13 15 4 0 26 10 52 20 52 5 0 6 -9 3 -20 -3 -11 0 -20 6 -20 23 0 -26
-40 -52 -42 -14 -1 -25 -5 -25 -8 2 -23 -4 -40 -13 -40 -18 0 -4 141 20 220
28 92 39 103 102 111 42 5 32 6 -46 6 -55 0 -83 -2 -62 -4z m-100 -47 c-19
-40 -84 -78 -69 -41 4 11 -1 15 -17 15 l-21 0 21 21 c17 17 55 32 95 38 4 1 0
-14 -9 -33z m338 24 c34 -10 119 -87 119 -108 0 -5 -12 -7 -26 -4 -18 3 -22 8
-15 15 7 7 7 14 0 23 -8 10 -17 9 -43 -5 l-32 -18 -25 53 c-14 30 -23 54 -20
54 3 0 22 -5 42 -10z m-447 -32 c-5 -7 -25 -35 -46 -61 -21 -27 -42 -55 -46
-63 -10 -18 -87 -23 -103 -7 -17 17 40 66 125 108 77 39 80 40 70 23z m590
-19 c113 -53 216 -166 216 -237 0 -21 -5 -22 -71 -22 l-72 0 6 40 c3 23 1 38
-4 34 -5 -3 -9 2 -9 11 0 11 6 14 24 9 18 -4 27 -1 35 14 19 35 13 52 -17 52
-15 0 -36 6 -47 14 -11 8 -33 12 -48 11 -15 -2 -25 1 -21 6 3 5 -11 29 -32 54
-20 25 -34 45 -31 45 2 0 35 -14 71 -31z m-591 -41 c-4 -22 -4 -23 11 -4 13
16 19 17 28 8 9 -9 9 -12 0 -12 -6 0 -9 -7 -6 -15 4 -8 10 -12 15 -9 10 6 13
-39 3 -48 -3 -4 -15 3 -27 15 -13 13 -22 17 -25 9 -2 -7 -9 -9 -14 -6 -7 4 -8
2 -4 -4 4 -7 14 -12 22 -12 8 0 19 -12 24 -26 13 -32 12 -37 0 -29 -5 3 -10
-2 -10 -13 0 -27 -9 -33 -31 -19 -23 14 -25 35 -4 43 8 4 15 12 15 19 0 7 -7
15 -15 19 -8 3 -15 1 -15 -4 0 -5 -14 -8 -31 -8 -24 1 -27 3 -15 10 9 5 16 17
16 26 0 17 48 82 61 82 4 0 5 -10 2 -22z m-227 -120 c-1 -20 3 -23 29 -20 42
4 65 -16 58 -50 -5 -27 -8 -28 -69 -28 -61 0 -64 1 -64 25 0 26 29 95 41 95 3
0 6 -10 5 -22z m878 -40 c12 -46 7 -58 -23 -58 -24 0 -28 3 -24 20 3 11 10 17
17 14 6 -3 4 0 -5 8 -20 16 -14 38 11 38 10 0 20 -10 24 -22z m-764 -43 c0 -8
-4 -15 -10 -15 -5 0 -7 7 -4 15 4 8 8 15 10 15 2 0 4 -7 4 -15z m478 -21 c1
-14 -2 -23 -8 -19 -12 7 -14 45 -2 45 4 0 9 -11 10 -26z m-41 10 c-3 -3 -12
-4 -19 -1 -8 3 -5 6 6 6 11 1 17 -2 13 -5z m-456 -65 c9 -57 56 -144 106 -196
l45 -48 -41 49 c-48 57 -91 141 -101 197 -9 49 7 52 43 9 30 -35 33 -36 40
-10 3 12 14 20 25 20 12 0 24 5 27 10 13 21 25 9 25 -26 0 -19 -7 -42 -15 -50
-19 -19 -19 -48 -1 -63 11 -9 13 -27 9 -69 -3 -31 -9 -61 -13 -66 -10 -10
-104 32 -173 76 -59 38 -105 102 -116 163 l-9 46 72 -3 71 -3 6 -36z m307 -11
c-2 -60 25 -174 53 -230 24 -47 24 -48 -5 -48 -65 0 -85 11 -111 63 -28 57
-31 82 -11 94 7 4 16 17 20 28 4 16 -3 25 -34 43 -36 20 -40 26 -40 62 l0 40
65 0 64 0 -1 -52z m142 37 c0 -20 -48 -20 -86 0 -29 15 -29 15 29 15 44 0 57
-3 57 -15z m334 -22 c-9 -49 -40 -110 -70 -138 -13 -12 -24 -29 -24 -37 0 -26
-83 -96 -123 -103 l-37 -7 24 42 c14 24 35 78 47 121 18 63 25 76 36 68 10 -9
13 -7 13 9 0 11 8 22 20 25 14 3 20 14 20 31 0 25 3 26 50 26 l51 0 -7 -37z
m-314 -47 c0 -6 -7 -2 -15 8 -8 11 -15 25 -15 30 0 6 7 2 15 -8 8 -11 15 -25
15 -30z m78 22 c6 -6 12 -18 12 -26 0 -12 4 -11 16 6 44 63 42 -14 -3 -127
-41 -104 -56 -121 -109 -121 -25 0 -54 4 -64 10 -22 12 -55 95 -65 164 -7 43
-6 48 11 44 18 -3 21 -10 44 -96 12 -46 27 -51 46 -14 33 66 21 19 -21 -82 -6
-13 -5 -17 3 -13 6 4 18 29 28 55 10 26 21 49 25 52 11 8 -2 61 -14 53 -6 -3
-7 -1 -3 6 4 6 12 9 17 6 5 -4 9 3 9 14 0 33 1 35 18 54 14 16 14 20 2 28 -11
8 -8 8 10 3 14 -3 31 -11 38 -16z m-315 -204 l25 -50 -31 4 c-39 5 -57 19 -57
41 0 16 29 66 35 59 1 -2 14 -26 28 -54z m526 33 c12 -15 -4 -25 -82 -53 l-38
-14 27 33 c38 46 72 58 93 34z"/>
<path d="M1870 3519 c0 -5 5 -7 10 -4 6 3 10 8 10 11 0 2 -4 4 -10 4 -5 0 -10
-5 -10 -11z"/>
<path d="M1956 3271 c-3 -5 1 -11 9 -14 9 -4 12 -1 8 9 -6 16 -10 17 -17 5z"/>
<path d="M2515 3200 c-3 -5 -1 -10 4 -10 6 0 11 5 11 10 0 6 -2 10 -4 10 -3 0
-8 -4 -11 -10z"/>
<path d="M3932 3198 c16 -16 18 -36 18 -165 0 -173 -6 -220 -29 -226 -9 -3 16
-5 54 -5 39 0 61 3 50 5 -11 3 -23 10 -27 17 -4 6 -8 93 -8 194 0 180 0 183
23 191 16 6 5 9 -39 8 -59 0 -60 -1 -42 -19z"/>
<path d="M4130 2986 c0 -158 -2 -175 -17 -179 -10 -3 7 -5 37 -5 41 -1 50 1
33 8 -21 8 -22 16 -25 137 -2 70 -2 130 -1 132 1 2 63 -60 139 -138 75 -77
140 -141 145 -141 4 0 9 79 11 175 3 169 2 175 -17 175 -19 0 -20 -4 -13 -137
4 -75 6 -138 4 -140 -3 -4 -197 193 -246 250 -18 20 -36 37 -41 37 -5 0 -9
-78 -9 -174z"/>
<path d="M4505 3142 c-9 -25 -6 -35 8 -24 6 5 36 13 65 17 l52 7 0 -161 c0
-142 -2 -161 -17 -170 -14 -8 -3 -10 42 -10 33 1 52 3 43 6 -26 6 -29 32 -26
188 l3 140 50 -3 c27 -2 55 -8 62 -14 10 -8 13 -5 13 13 l0 24 -145 0 c-111 0
-146 -3 -150 -13z"/>
<path d="M4950 3152 l-85 -3 3 -162 c3 -144 1 -163 -14 -174 -15 -11 -1 -13
83 -13 83 0 102 3 107 16 11 28 6 36 -10 20 -18 -19 -94 -22 -112 -4 -7 7 -12
40 -12 80 l0 68 50 0 c36 0 52 -5 59 -17 9 -15 10 -13 11 12 l0 30 -60 -3 -61
-4 3 69 3 68 37 3 c20 2 46 -2 58 -8 16 -9 22 -8 26 5 4 9 5 17 3 18 -2 1 -42
1 -89 -1z"/>
<path d="M5470 2990 c0 -138 -3 -172 -14 -176 -24 -9 -53 13 -111 83 l-54 66
24 29 c32 38 40 71 25 107 -16 39 -48 51 -133 51 l-72 0 3 -169 c3 -156 1
-170 -15 -174 -10 -3 9 -5 42 -5 33 0 53 2 45 5 -24 10 -30 25 -30 86 l0 57
39 0 c36 0 43 -5 76 -50 65 -88 85 -100 173 -99 52 0 70 3 56 9 -19 8 -21 19
-27 136 -3 71 -5 130 -3 131 2 2 65 -60 141 -137 76 -77 142 -140 146 -140 5
0 9 79 11 175 3 169 2 175 -17 175 -19 0 -20 -5 -15 -137 3 -76 5 -139 4 -141
-3 -5 -244 244 -261 269 -8 10 -18 19 -24 19 -5 0 -9 -70 -9 -170z m-201 140
c41 -22 52 -120 16 -150 -7 -6 -33 -10 -57 -8 l-43 3 -3 69 c-2 38 -1 75 2 83
6 15 59 17 85 3z"/>
<path d="M5972 3119 c-96 -248 -118 -294 -142 -306 -23 -12 -21 -13 30 -13 37
0 50 3 40 9 -12 8 -12 17 3 65 l18 56 63 0 63 0 22 -51 c11 -29 21 -58 21 -65
0 -10 14 -14 48 -13 37 0 43 2 25 9 -27 11 -35 28 -107 205 -32 77 -59 142
-62 144 -2 3 -12 -15 -22 -40z m43 -102 l25 -67 -55 0 -54 0 19 53 c25 73 32
88 36 84 2 -2 15 -33 29 -70z"/>
<path d="M6116 3135 c-9 -33 -7 -40 7 -22 8 11 30 17 67 19 l55 3 0 -158 c0
-129 -3 -159 -15 -167 -10 -7 3 -10 45 -9 46 0 55 2 38 9 -23 9 -23 13 -23
170 l0 161 48 -6 c26 -4 55 -9 65 -12 14 -3 18 0 15 11 -3 14 -24 17 -150 19
-140 2 -147 1 -152 -18z"/>
<path d="M6740 3144 c-100 -43 -139 -157 -87 -254 57 -109 239 -122 316 -24
49 62 51 169 3 225 -52 63 -156 86 -232 53z m136 -15 c55 -26 84 -82 84 -160
0 -102 -65 -168 -150 -154 -81 14 -131 80 -131 174 -1 89 26 129 100 152 41
12 52 10 97 -12z"/>
<path d="M7080 2990 c0 -150 -2 -170 -17 -179 -14 -8 -5 -10 37 -10 41 0 49 2
34 9 -20 8 -22 17 -26 137 -3 70 -4 129 -3 131 1 1 64 -61 140 -138 76 -77
142 -140 146 -140 5 0 9 79 11 175 3 169 2 175 -17 175 -19 0 -20 -5 -14 -137
3 -76 4 -139 3 -141 -3 -4 -208 207 -249 256 -15 17 -31 32 -36 32 -5 0 -9
-74 -9 -170z"/>
<path d="M7597 3129 c-7 -19 -37 -96 -66 -171 -45 -116 -58 -139 -80 -147 -22
-8 -18 -10 29 -10 37 0 50 2 41 8 -13 8 -12 17 4 65 l19 56 62 0 61 0 22 -51
c11 -29 21 -58 21 -65 0 -10 14 -14 48 -14 44 0 46 1 22 13 -19 10 -40 49 -92
176 -37 90 -69 166 -72 168 -3 3 -11 -10 -19 -28z m31 -91 c11 -29 23 -61 27
-70 6 -16 1 -18 -48 -18 l-54 0 25 70 c13 39 26 70 28 70 1 0 11 -24 22 -52z"/>
<path d="M6488 3138 c8 -8 12 -58 12 -159 0 -121 -3 -150 -16 -163 -14 -15
-10 -16 43 -15 46 0 53 2 35 9 -23 10 -23 11 -20 175 l3 165 -34 0 c-27 0 -32
-3 -23 -12z"/>
<path d="M7848 2988 c3 -147 1 -164 -15 -176 -15 -11 0 -12 92 -10 97 3 110 5
113 21 3 16 1 17 -16 8 -12 -6 -41 -11 -66 -11 -64 0 -68 12 -64 186 l3 144
-25 0 -25 0 3 -162z"/>
<path d="M1053 2916 c-118 -201 -133 -232 -133 -272 0 -85 64 -140 152 -132
53 6 79 24 102 73 13 26 16 69 16 205 l0 171 35 -27 35 -26 0 -189 0 -189 485
0 485 0 0 30 0 30 -170 0 -170 0 0 35 0 35 170 0 c141 0 170 2 170 14 0 17 42
22 230 31 69 3 144 8 168 11 l42 7 0 -94 c0 -121 -7 -132 -56 -94 l-37 28 7
-26 c7 -28 -4 -36 -22 -14 -7 8 -6 18 4 31 18 26 18 90 -1 106 -17 14 -45 7
-45 -12 0 -10 3 -9 9 1 5 8 16 11 25 8 21 -8 22 -80 1 -101 -20 -20 -11 -37
32 -61 50 -27 54 -45 9 -45 -19 0 -38 5 -41 10 -3 6 -13 10 -21 10 -12 0 -12
-4 3 -25 11 -15 28 -24 45 -25 15 0 30 -4 33 -10 3 -5 2 -10 -2 -10 -5 0 -18
-7 -29 -16 -18 -15 -18 -15 3 -5 12 6 30 11 41 11 10 0 27 9 37 20 18 20 18
21 -25 65 -24 25 -41 47 -38 50 3 3 11 -1 18 -10 16 -19 39 -19 47 1 5 13 17
14 77 9 89 -9 130 6 176 64 18 23 37 41 42 41 15 0 8 -50 -12 -90 -24 -47 -25
-54 -4 -46 10 4 18 0 21 -12 3 -14 11 -18 29 -14 16 3 26 -1 30 -12 3 -9 15
-16 25 -16 10 0 19 -7 19 -15 0 -8 9 -15 20 -15 11 0 20 -7 20 -15 0 -8 5 -15
10 -15 6 0 10 -11 10 -24 0 -14 5 -28 10 -31 8 -5 8 -11 1 -19 -6 -6 -10 -21
-10 -31 -1 -33 -7 -64 -14 -71 -4 -4 -7 -16 -7 -26 0 -10 -7 -21 -15 -24 -8
-4 -15 -15 -15 -25 0 -10 -6 -19 -14 -19 -8 0 -16 -7 -20 -15 -3 -8 -12 -12
-21 -9 -9 4 -17 -1 -21 -11 -4 -9 -12 -14 -19 -11 -8 3 -16 -2 -19 -11 -4 -9
-14 -13 -26 -10 -13 3 -24 -1 -30 -13 -7 -14 -22 -18 -62 -18 -29 1 -61 -3
-70 -7 -9 -4 -22 -4 -27 0 -6 3 -20 1 -31 -5 -16 -9 -25 -8 -36 1 -11 9 -14 8
-14 -5 0 -10 -8 -25 -17 -34 -16 -16 -16 -17 0 -20 12 -3 17 -14 17 -38 0 -19
-4 -34 -8 -34 -4 0 -8 -9 -8 -19 0 -15 3 -17 13 -9 7 6 22 8 32 5 11 -3 22 1
25 9 3 8 12 11 22 7 13 -5 16 -3 11 10 -4 10 0 20 11 26 16 10 16 10 -1 11
-10 0 -20 6 -23 14 -3 8 -21 17 -39 20 -25 5 -33 11 -28 22 3 9 13 14 24 11
11 -3 22 -1 25 5 3 5 13 7 21 4 8 -3 23 -1 34 5 15 7 24 7 34 -1 9 -7 15 -8
20 0 3 5 14 10 24 10 26 0 47 -90 24 -107 -8 -7 -12 -17 -7 -24 4 -7 0 -17 -8
-23 -9 -6 -18 -20 -20 -31 -2 -11 -9 -19 -15 -18 -6 1 -14 -9 -17 -22 -4 -14
-13 -25 -21 -25 -8 0 -15 -4 -15 -10 0 -5 -10 -10 -23 -10 -13 0 -29 -6 -35
-12 -10 -10 -17 -10 -32 0 -13 8 -20 9 -20 1 0 -14 -92 -1 -105 15 -5 7 -16
11 -23 8 -7 -2 -19 2 -28 8 -12 11 -13 10 -8 -4 3 -9 17 -16 29 -16 13 0 25
-5 27 -10 4 -14 164 -24 173 -10 3 5 17 10 30 10 13 0 26 6 29 13 3 6 5 3 3
-8 -1 -12 -11 -21 -25 -23 -12 -2 -22 -8 -22 -13 0 -5 -9 -9 -19 -9 -11 0 -23
-5 -26 -10 -4 -7 -13 -7 -26 0 -15 9 -19 7 -19 -5 0 -17 -25 -21 -35 -5 -3 5
-12 10 -18 10 -7 0 -3 -7 8 -16 11 -8 28 -13 38 -10 19 5 23 -9 6 -20 -6 -3
-37 -8 -68 -10 -64 -4 -105 -16 -127 -39 -13 -13 -14 -15 -1 -15 8 0 17 7 21
15 3 8 12 12 21 9 8 -3 15 -1 15 6 0 6 10 10 23 9 12 -1 30 2 41 6 11 5 26 3
37 -3 12 -8 20 -8 24 -1 4 6 17 9 28 8 12 -1 30 1 40 6 9 4 24 4 33 1 10 -4
22 0 29 10 10 14 15 15 34 4 19 -10 22 -9 19 2 -7 19 10 48 29 48 12 0 13 3 4
14 -16 19 -3 64 21 72 12 3 17 11 14 20 -3 8 -2 13 2 10 13 -8 33 10 35 31 2
31 40 13 48 -23 4 -16 7 -25 8 -21 0 4 10 3 21 -3 14 -8 19 -17 15 -29 -3 -12
0 -21 11 -25 11 -4 15 -14 11 -33 -3 -15 0 -35 7 -45 9 -15 8 -22 -4 -31 -14
-10 -26 -57 -15 -57 13 0 36 72 29 92 -4 13 -7 33 -5 45 1 11 -3 24 -8 28 -6
3 -11 15 -11 25 0 11 -11 27 -25 36 -14 9 -25 22 -25 30 0 7 -11 21 -24 29
-21 14 -24 24 -25 81 l0 64 144 0 145 0 0 136 0 136 -40 -4 c-43 -4 -57 10
-41 41 6 10 6 23 0 32 -5 7 -9 24 -9 37 0 12 -4 22 -10 22 -5 0 -10 7 -10 15
0 8 -7 15 -15 15 -9 0 -18 7 -21 15 -4 8 -15 15 -25 15 -11 0 -22 7 -25 15 -4
8 -16 15 -29 15 -12 0 -30 9 -39 19 -16 18 -16 22 -2 50 9 16 16 41 16 54 0
25 -22 52 -33 40 -4 -3 -7 26 -7 65 l0 71 56 16 c72 21 263 119 287 146 16 20
17 15 17 -137 0 -88 5 -176 10 -196 6 -20 26 -50 46 -67 83 -74 224 -9 224
103 0 15 -10 46 -21 69 -37 71 -240 417 -250 422 -4 3 -8 -24 -7 -61 1 -66 0
-67 -38 -101 -50 -43 -223 -127 -314 -152 -327 -91 -743 -114 -1100 -62 -266
40 -434 96 -603 204 l-56 36 -3 72 -3 73 -132 -228z m270 -82 c-3 -7 -10 -12
-16 -11 -18 3 -27 21 -15 28 17 11 38 -1 31 -17z m57 -40 c0 -8 -6 -14 -14
-14 -18 0 -29 27 -13 33 16 6 27 -1 27 -19z m100 1 c0 -8 -7 -15 -15 -15 -8 0
-15 7 -15 15 0 8 7 15 15 15 8 0 15 -7 15 -15z m-166 -52 c-22 -16 -28 -11
-19 17 6 17 9 19 22 9 13 -11 13 -14 -3 -26z m116 1 c0 -6 -7 -11 -15 -11 -16
0 -18 7 -9 32 5 13 8 14 15 3 5 -7 9 -18 9 -24z m110 -2 c0 -10 -5 -10 -21 -2
-16 9 -18 14 -8 26 10 12 14 12 20 2 5 -7 9 -19 9 -26z m100 8 c0 -5 -7 -10
-15 -10 -8 0 -15 5 -15 10 0 6 7 10 15 10 8 0 15 -4 15 -10z m-262 -44 c2 -10
-2 -15 -10 -14 -17 4 -28 20 -21 31 8 13 28 2 31 -17z m106 16 c6 -10 -5 -26
-21 -29 -7 -2 -13 3 -13 10 0 24 23 36 34 19z m109 -18 c-3 -7 -10 -12 -16
-11 -18 3 -27 21 -15 28 17 11 38 -1 31 -17z m110 0 c-3 -7 -10 -12 -16 -11
-18 3 -27 21 -15 28 17 11 38 -1 31 -17z m104 1 c0 -8 -8 -15 -18 -15 -14 0
-18 13 -10 37 3 9 28 -11 28 -22z m-483 -40 c-9 -22 -34 -27 -34 -6 0 23 8 31
25 24 8 -2 11 -11 9 -18z m109 -1 c-3 -8 -11 -14 -18 -14 -17 0 -27 28 -12 33
20 7 36 -4 30 -19z m110 0 c-3 -8 -11 -14 -18 -14 -17 0 -27 28 -12 33 20 7
36 -4 30 -19z m107 5 c0 -12 -29 -24 -37 -16 -3 4 -3 13 0 21 6 16 37 11 37
-5z m103 -5 c-3 -8 -11 -14 -18 -14 -17 0 -27 28 -12 33 20 7 36 -4 30 -19z
m110 0 c-3 -8 -11 -14 -18 -14 -17 0 -27 28 -12 33 20 7 36 -4 30 -19z m-270
-51 c-5 -14 -24 -13 -35 1 -3 5 -1 14 5 21 14 14 37 -3 30 -22z m110 0 c-5
-14 -24 -13 -35 1 -3 5 -1 14 5 21 14 14 37 -3 30 -22z m-325 3 c2 -10 -2 -15
-10 -14 -17 4 -28 20 -21 31 8 13 28 2 31 -17z m107 15 c3 -6 -4 -15 -15 -21
-16 -8 -20 -8 -20 3 0 25 23 36 35 18z m321 -13 c1 -11 -5 -16 -16 -15 -15 1
-17 7 -11 35 3 11 25 -7 27 -20z m-483 -44 c-7 -18 -33 -18 -33 -1 0 19 10 27
25 20 8 -2 11 -11 8 -19z m110 0 c-3 -8 -11 -14 -18 -14 -17 0 -27 28 -12 33
20 7 36 -4 30 -19z m107 0 c0 -8 -6 -14 -14 -14 -18 0 -29 27 -13 33 16 6 27
-1 27 -19z m103 0 c-7 -18 -33 -18 -33 -1 0 19 10 27 25 20 8 -2 11 -11 8 -19z
m110 0 c-3 -8 -11 -14 -18 -14 -17 0 -27 28 -12 33 20 7 36 -4 30 -19z m110 0
c-3 -8 -11 -14 -18 -14 -17 0 -27 28 -12 33 20 7 36 -4 30 -19z m1064 -631 c6
-18 7 -35 3 -38 -5 -3 -9 -13 -9 -23 -1 -43 -9 -60 -49 -100 -45 -47 -80 -55
-38 -9 14 16 26 34 26 42 0 8 6 18 13 22 29 19 38 82 21 143 -7 22 -6 23 7 10
8 -8 19 -30 26 -47z"/>
<path d="M1451 2934 c-7 -19 -10 -38 -7 -41 3 -4 6 -4 6 -1 0 3 7 22 15 42 8
20 12 36 7 36 -4 0 -14 -16 -21 -36z"/>
<path d="M3025 2953 c3 -12 8 -31 10 -44 5 -26 13 -35 22 -25 4 3 -3 25 -15
49 -12 23 -20 32 -17 20z"/>
<path d="M1481 2924 c-7 -19 -11 -38 -8 -41 3 -2 9 6 13 19 8 21 9 20 14 -12
6 -35 7 -35 17 -10 6 14 13 36 17 50 l7 25 -15 -25 -15 -25 -1 28 c0 38 -14
34 -29 -9z"/>
<path d="M2987 2954 c-7 -7 26 -84 36 -84 4 0 3 9 -3 19 -13 25 -13 34 1 25 8
-5 8 -1 0 14 -13 24 -26 34 -34 26z"/>
<path d="M1556 2926 c3 -9 1 -29 -4 -46 -6 -16 -7 -30 -2 -30 5 0 11 13 15 30
4 16 14 34 23 40 9 5 12 10 5 10 -6 0 -19 3 -27 6 -12 5 -15 2 -10 -10z"/>
<path d="M2941 2913 c0 -30 17 -78 18 -54 1 8 8 11 21 8 25 -6 25 1 -1 33
l-20 25 6 -24 c5 -17 4 -21 -5 -16 -7 4 -9 17 -6 31 4 14 2 24 -4 24 -5 0 -10
-12 -9 -27z"/>
<path d="M1600 2894 c-17 -43 -13 -64 13 -63 16 1 18 2 5 6 -10 2 -18 8 -18
13 0 5 8 14 18 19 9 6 11 11 5 11 -23 0 -14 20 10 20 18 0 19 2 7 10 -23 15
-30 12 -40 -16z"/>
<path d="M2881 2909 c-1 -20 19 -79 27 -79 4 0 14 5 22 10 12 8 11 10 -6 10
-15 0 -23 10 -31 38 -6 20 -11 30 -12 21z"/>
<path d="M1655 2881 c-3 -14 -8 -35 -11 -46 -5 -19 -4 -19 9 -2 19 23 31 22
24 -3 -3 -11 -1 -20 4 -20 5 0 9 6 9 14 0 7 3 27 6 43 5 25 2 31 -14 35 -16 5
-22 0 -27 -21z m35 0 c0 -6 -4 -13 -10 -16 -5 -3 -10 1 -10 9 0 9 5 16 10 16
6 0 10 -4 10 -9z"/>
<path d="M2856 2875 c3 -22 10 -44 15 -50 11 -11 3 35 -13 70 -5 13 -6 7 -2
-20z"/>
<path d="M2807 2863 c-2 -21 0 -42 4 -47 5 -6 9 2 10 20 1 20 3 23 6 9 3 -11
10 -24 15 -30 7 -7 8 -3 5 10 -4 11 -9 32 -13 48 -9 38 -21 34 -27 -10z"/>
<path d="M1715 2849 c-4 -22 -4 -43 -1 -46 3 -4 6 6 6 21 0 16 4 25 10 21 6
-4 10 5 10 19 0 41 -18 30 -25 -15z"/>
<path d="M2771 2853 c5 -21 9 -42 10 -48 0 -5 4 2 9 17 10 34 2 68 -15 68 -10
0 -11 -9 -4 -37z"/>
<path d="M1751 2849 c-13 -39 -14 -49 -2 -49 8 0 24 71 17 77 -2 2 -9 -10 -15
-28z"/>
<path d="M1792 2852 c-5 -15 -14 -36 -18 -47 -7 -17 -6 -18 8 -7 14 11 18 10
27 -5 8 -14 10 -9 11 29 0 55 -14 70 -28 30z m18 -12 c0 -11 -4 -20 -9 -20 -5
0 -7 9 -4 20 3 11 7 20 9 20 2 0 4 -9 4 -20z"/>
<path d="M2686 2872 c-7 -12 5 -82 14 -82 5 0 6 9 3 19 -3 13 1 21 14 24 16 4
16 5 1 6 -21 1 -24 27 -5 34 7 3 6 6 -5 6 -9 1 -19 -3 -22 -7z"/>
<path d="M1849 2823 l4 -48 10 38 c5 20 13 37 19 37 5 0 6 5 3 10 -3 6 -14 10
-23 10 -14 0 -16 -8 -13 -47z"/>
<path d="M2627 2863 c-10 -10 -8 -52 3 -73 23 -44 53 14 34 64 -6 16 -26 21
-37 9z m27 -19 c9 -23 7 -54 -3 -54 -11 0 -21 25 -21 51 0 23 15 25 24 3z"/>
<path d="M1902 2840 c-1 -14 -5 -36 -8 -50 -5 -19 -4 -22 5 -14 7 7 11 28 8
50 -2 22 -4 28 -5 14z"/>
<path d="M1937 2854 c-11 -12 -8 -82 5 -90 17 -11 39 27 36 61 -3 28 -25 44
-41 29z m27 -48 c-3 -14 -10 -26 -15 -26 -10 0 -12 53 -2 64 13 12 24 -11 17
-38z"/>
<path d="M1994 2816 c-3 -19 -4 -41 -1 -48 3 -7 6 0 6 15 1 16 5 26 11 22 6
-3 10 3 10 14 0 35 -19 33 -26 -3z"/>
<path d="M2037 2843 c-12 -19 -19 -83 -9 -83 5 0 12 19 14 43 5 44 4 54 -5 40z"/>
<path d="M2071 2819 c-6 -17 -11 -39 -11 -48 0 -14 2 -14 10 -1 9 13 13 12 26
-5 15 -19 15 -17 9 25 -9 59 -20 69 -34 29z m16 -21 c-3 -7 -5 -2 -5 12 0 14
2 19 5 13 2 -7 2 -19 0 -25z"/>
<path d="M2410 2835 c-15 -18 -2 -76 18 -83 20 -6 35 39 23 71 -12 31 -23 34
-41 12z m30 -41 c0 -21 -4 -33 -10 -29 -5 3 -10 22 -10 41 0 21 4 33 10 29 6
-3 10 -22 10 -41z"/>
<path d="M2474 2837 c-3 -9 -4 -28 -2 -44 2 -20 8 -28 23 -28 17 0 20 7 20 40
0 30 -4 41 -18 43 -9 2 -20 -3 -23 -11z m34 -36 c3 -24 0 -32 -10 -29 -7 3
-14 19 -16 37 -3 24 0 32 10 29 7 -3 14 -19 16 -37z"/>
<path d="M2538 2806 c3 -39 6 -43 25 -38 18 5 19 7 5 10 -13 2 -18 13 -18 38
0 19 -3 34 -8 34 -4 0 -6 -20 -4 -44z"/>
<path d="M2132 2798 c-2 -43 0 -48 20 -48 19 0 20 1 5 13 -9 6 -18 28 -20 47
-3 29 -4 27 -5 -12z"/>
<path d="M2213 2824 c-4 -11 2 -23 16 -33 12 -9 19 -20 15 -24 -4 -4 -14 -1
-22 6 -13 10 -14 9 -10 -3 7 -21 37 -25 44 -5 4 8 -1 24 -10 34 -20 22 -21 35
-1 27 8 -3 15 -1 15 4 0 17 -40 11 -47 -6z"/>
<path d="M2277 2818 c-9 -35 3 -68 24 -68 12 0 19 7 18 18 0 10 -3 12 -6 5
-10 -25 -23 -12 -23 22 0 34 13 47 23 23 3 -8 6 -6 6 5 1 26 -35 22 -42 -5z"/>
<path d="M2343 2795 c0 -27 2 -40 4 -27 2 12 11 22 18 22 7 0 16 -10 18 -22 2
-13 5 -2 6 25 0 28 -3 47 -10 47 -6 0 -9 -7 -5 -15 3 -9 0 -15 -9 -15 -7 0
-16 8 -18 18 -3 9 -5 -5 -4 -33z"/>
<path d="M4025 2689 c-119 -45 -168 -173 -111 -294 26 -56 41 -72 184 -203 90
-83 104 -99 117 -145 34 -122 -34 -207 -167 -207 -98 0 -150 41 -167 131 l-8
44 -7 -35 c-4 -19 -6 -60 -4 -90 3 -49 6 -56 31 -68 43 -21 131 -30 194 -20
136 21 213 107 213 238 0 108 -36 163 -182 281 -111 91 -147 132 -155 183 -7
46 2 78 33 115 72 86 247 49 270 -57 8 -34 9 -31 14 38 3 41 3 79 -1 84 -11
13 -220 17 -254 5z"/>
<path d="M2387 2622 c-23 -25 -21 -55 3 -77 13 -12 17 -23 11 -34 -7 -13 2
-61 11 -61 12 0 -1 92 -15 108 -24 27 -21 51 9 64 24 11 29 9 49 -14 13 -15
25 -32 27 -39 3 -10 8 -10 24 0 14 9 14 11 2 7 -11 -3 -23 6 -37 30 -23 39
-58 45 -84 16z"/>
<path d="M4622 2559 c-117 -23 -212 -98 -266 -209 -28 -59 -31 -74 -31 -165 0
-93 2 -105 33 -167 52 -106 152 -180 280 -207 68 -14 213 -14 285 0 64 13 71
25 82 129 l6 55 -25 -52 c-30 -64 -57 -82 -141 -94 -127 -18 -250 25 -335 117
-62 67 -83 122 -88 230 -5 118 13 184 68 247 56 63 122 87 239 87 155 0 230
-38 254 -129 l12 -46 7 90 c4 49 5 91 3 93 -1 2 -45 10 -96 17 -103 16 -220
18 -287 4z"/>
<path d="M6090 2555 c-110 -31 -199 -107 -248 -213 -24 -50 -27 -69 -27 -162
0 -99 2 -110 33 -172 40 -81 110 -148 190 -180 47 -19 76 -23 168 -23 107 0
112 1 186 38 137 67 209 177 216 327 9 185 -75 318 -238 375 -66 24 -212 29
-280 10z m247 -51 c108 -52 163 -155 171 -319 3 -83 0 -110 -16 -158 -28 -78
-72 -131 -138 -163 -49 -24 -63 -26 -137 -22 -136 7 -210 58 -270 186 -23 50
-31 82 -35 151 -6 105 8 172 48 235 73 114 241 154 377 90z"/>
<path d="M6970 2555 c-110 -31 -199 -107 -248 -213 -24 -51 -27 -69 -27 -162
0 -98 3 -110 33 -172 61 -125 172 -196 323 -206 136 -8 240 28 327 115 74 74
105 145 110 254 9 184 -75 317 -238 374 -66 24 -212 29 -280 10z m236 -45 c63
-27 111 -76 146 -149 27 -57 32 -79 36 -167 7 -168 -38 -269 -148 -327 -51
-27 -61 -29 -140 -25 -96 5 -147 25 -205 83 -116 117 -141 363 -51 494 74 106
234 147 362 91z"/>
<path d="M6939 2249 c-28 -30 -33 -48 -29 -99 5 -55 51 -91 112 -89 33 2 33 2
4 6 -44 7 -74 31 -86 69 -21 64 3 124 55 137 17 4 17 5 -3 6 -15 1 -35 -11
-53 -30z"/>
<path d="M7055 2266 c34 -15 55 -52 55 -97 0 -34 -23 -85 -42 -92 -7 -3 -8 -6
-2 -6 16 -1 54 38 65 67 6 15 8 41 4 59 -7 37 -56 83 -88 83 -19 -1 -17 -3 8
-14z"/>
<path d="M7168 2170 c3 -88 6 -110 18 -110 10 0 14 14 14 56 l0 56 35 -4 c21
-2 35 0 35 7 0 7 -14 9 -35 7 l-35 -4 0 46 c0 46 0 46 34 46 19 0 37 -6 39
-12 3 -8 6 -6 6 5 1 14 -8 17 -56 17 l-58 0 3 -110z"/>
<path d="M5024 2548 c-3 -4 8 -8 24 -8 56 0 57 -4 57 -349 0 -324 -4 -361 -40
-361 -7 0 -17 -4 -20 -10 -4 -6 39 -10 122 -10 86 0 123 3 113 10 -8 5 -25 10
-37 10 -37 0 -43 30 -43 204 l0 166 220 0 220 0 0 -129 c0 -186 -6 -219 -44
-242 l-31 -19 130 0 c88 0 125 3 115 10 -8 5 -25 10 -38 10 -15 0 -26 9 -32
26 -15 39 -13 657 2 672 7 7 23 12 37 12 13 0 21 3 17 8 -10 10 -236 11 -236
1 0 -4 14 -9 32 -11 42 -4 46 -19 47 -175 l1 -123 -220 0 -220 0 0 138 c0 142
5 162 42 162 10 0 18 4 18 8 0 11 -229 11 -236 0z"/>
<path d="M7570 2549 c0 -5 13 -9 30 -9 19 0 33 -7 40 -19 12 -23 13 -635 1
-665 -4 -10 -20 -24 -37 -31 -25 -12 4 -13 203 -14 148 -1 234 3 238 9 4 6 9
36 12 68 l5 57 -19 -35 c-10 -19 -29 -41 -43 -48 -31 -16 -214 -13 -230 4 -24
24 -30 97 -30 366 0 300 1 308 56 308 13 0 24 4 24 8 0 5 -56 9 -125 9 -69 0
-125 -4 -125 -8z"/>
<path d="M2362 2488 c-20 -20 -14 -34 28 -62 46 -30 53 -31 70 -11 11 13 16
12 40 -8 22 -17 27 -28 23 -49 -5 -25 -2 -29 25 -34 20 -4 29 -11 25 -19 -2
-8 0 -22 5 -32 10 -17 2 -18 -154 -15 l-164 4 0 -136 0 -136 58 0 57 0 0 -53
c0 -28 -4 -57 -8 -64 -4 -6 -3 -14 3 -18 5 -3 10 -20 10 -36 0 -17 6 -32 15
-35 8 -4 15 -11 15 -16 0 -15 57 -68 73 -68 8 0 17 -7 21 -15 3 -8 13 -15 21
-15 9 0 23 -7 31 -15 9 -8 23 -15 32 -14 12 0 11 3 -5 9 -13 5 -23 17 -23 25
0 12 -6 15 -21 10 -15 -5 -22 -2 -26 14 -4 16 -11 19 -29 15 -15 -4 -24 -2
-24 5 0 23 -2 26 -22 34 -12 4 -18 13 -15 21 3 8 -2 16 -14 19 -12 3 -19 14
-19 30 0 14 -5 29 -11 32 -7 5 -4 14 7 26 10 11 12 19 6 19 -18 0 -6 112 13
126 8 6 15 21 15 32 0 12 6 25 14 29 8 4 14 17 13 28 -1 12 7 24 21 30 12 5
22 18 22 28 0 9 12 23 28 30 15 6 30 16 34 22 8 11 59 15 53 5 -6 -9 56 -5 79
5 12 5 21 5 23 -2 3 -7 25 -9 58 -7 31 2 57 0 60 -7 5 -7 11 -6 21 2 8 6 23 9
33 6 12 -3 22 1 25 9 3 8 12 14 19 14 10 0 13 8 9 25 -2 14 -11 25 -18 25 -8
0 -14 7 -14 16 0 13 -3 14 -14 5 -10 -9 -16 -8 -26 4 -10 12 -16 13 -27 3 -12
-10 -18 -9 -28 5 -10 14 -14 15 -19 5 -5 -11 -7 -11 -12 0 -5 10 -9 10 -20 1
-8 -6 -26 -9 -41 -6 -33 6 -60 -6 -90 -42 -16 -20 -24 -23 -33 -14 -9 8 -10
19 -2 42 11 32 5 40 -15 20 -7 -7 -19 -9 -27 -6 -21 8 -21 37 0 37 14 0 14 3
4 15 -7 8 -17 15 -23 15 -6 0 -24 12 -39 27 -22 21 -28 23 -28 10 0 -28 -20
-30 -61 -3 -42 28 -46 35 -27 54 7 7 10 12 7 12 -3 0 -10 -5 -17 -12z m308
-197 c0 -23 -5 -30 -25 -33 -13 -3 -27 -3 -30 0 -5 5 43 62 52 62 2 0 3 -13 3
-29z"/>
<path d="M1087 2464 c-11 -14 -29 -29 -40 -34 -15 -6 -17 -9 -6 -9 17 -1 69
45 69 60 0 13 -3 11 -23 -17z"/>
<path d="M2730 2465 c0 -32 28 -45 46 -21 17 24 7 46 -22 46 -19 0 -24 -5 -24
-25z m40 -5 c0 -11 -7 -20 -15 -20 -8 0 -15 9 -15 20 0 11 7 20 15 20 8 0 15
-9 15 -20z"/>
<path d="M2872 2470 c0 -14 2 -19 5 -12 2 6 2 18 0 25 -3 6 -5 1 -5 -13z"/>
<path d="M3390 2475 c0 -4 14 -20 32 -37 l32 -29 -97 3 -97 3 0 -62 0 -63 105
0 105 0 0 70 c0 39 -4 70 -9 70 -5 0 -23 12 -40 26 -17 14 -31 23 -31 19z"/>
<path d="M1267 2463 c-4 -3 -7 -19 -7 -35 l0 -28 483 2 482 3 3 33 3 32 -479
0 c-263 0 -482 -3 -485 -7z"/>
<path d="M2911 2433 c-1 -16 6 -24 23 -29 14 -3 27 -12 30 -20 3 -8 10 -14 15
-14 26 0 73 -65 75 -104 1 -11 8 -21 16 -24 13 -5 13 -3 1 11 -10 13 -11 20
-2 31 9 11 8 15 -5 20 -10 4 -14 13 -11 26 3 11 1 18 -3 15 -13 -8 -40 6 -40
21 0 8 -9 14 -20 14 -14 0 -20 7 -20 21 0 16 -4 19 -20 14 -15 -5 -22 -1 -29
17 l-10 23 0 -22z"/>
<path d="M2840 2430 c-8 -5 -10 -10 -5 -10 6 0 17 5 25 10 8 5 11 10 5 10 -5
0 -17 -5 -25 -10z"/>
<path d="M1193 2413 c-32 -4 -33 -6 -33 -49 0 -44 0 -44 35 -44 l35 0 0 50 c0
28 -1 49 -2 48 -2 0 -18 -3 -35 -5z"/>
<path d="M1028 2365 c4 -44 5 -45 38 -45 34 0 34 0 34 45 l0 45 -38 0 -37 0 3
-45z"/>
<path d="M1262 2308 l3 -33 125 1 c69 1 286 2 483 3 l357 1 0 30 0 30 -486 0
-485 0 3 -32z"/>
<path d="M1028 2145 l-3 -105 38 0 37 0 0 105 0 105 -34 0 -35 0 -3 -105z"/>
<path d="M1160 2145 l0 -105 35 0 35 0 0 105 0 105 -35 0 -35 0 0 -105z"/>
<path d="M3001 2205 c-25 -18 -54 -33 -65 -33 -191 -6 -233 -8 -243 -15 -6 -4
-18 -5 -25 -2 -22 9 -59 -10 -106 -52 -48 -44 -74 -86 -65 -108 3 -8 0 -15 -7
-15 -17 0 -8 -43 10 -47 13 -4 13 -3 0 6 -12 8 -13 14 -3 30 7 11 10 27 7 36
-4 10 0 15 11 15 12 0 15 5 10 20 -4 14 -1 22 12 27 10 3 22 12 26 20 4 7 16
13 26 13 12 0 18 7 17 18 0 9 5 16 13 14 7 -1 19 3 27 9 11 9 17 9 28 0 11
-10 17 -8 25 6 8 15 13 16 29 6 15 -9 22 -9 31 0 9 9 16 9 30 0 13 -8 21 -9
29 -1 8 8 16 7 27 -2 14 -11 18 -11 25 -1 4 8 16 11 28 7 11 -4 23 -2 27 4 5
8 10 8 20 0 9 -8 14 -6 19 6 4 9 13 14 21 10 9 -3 15 0 15 9 0 9 10 15 25 15
18 0 25 5 25 20 0 24 4 26 -49 -15z"/>
<path d="M1260 2180 l0 -30 484 0 c452 0 484 1 488 18 11 43 19 42 -488 42
l-484 0 0 -30z"/>
<path d="M3270 2100 l0 -60 100 0 100 0 0 60 0 60 -100 0 -100 0 0 -60z"/>
<path d="M2497 2111 c-15 -16 -27 -34 -27 -40 0 -6 -4 -19 -9 -29 -22 -44 -31
-69 -30 -87 1 -11 -2 -28 -6 -37 -5 -12 -2 -20 8 -24 9 -3 13 -12 10 -20 -3
-8 1 -22 8 -30 8 -9 14 -22 15 -28 0 -6 2 -16 2 -22 1 -7 12 -14 25 -17 22 -6
22 -6 -2 12 -15 12 -21 23 -16 31 5 8 1 18 -10 26 -10 7 -15 20 -12 28 3 8 -1
20 -9 27 -9 8 -11 16 -5 23 6 7 8 22 4 34 -3 14 0 24 9 27 10 4 13 15 10 31
-2 14 0 24 7 24 6 0 11 7 11 16 0 9 16 32 36 50 19 19 29 34 22 34 -7 0 -25
-13 -41 -29z"/>
<path d="M1264 2121 c-2 -2 -4 -130 -4 -283 l0 -278 155 0 155 0 0 280 c0 254
-2 281 -17 287 -9 4 -18 2 -20 -3 -2 -5 -57 -7 -134 -4 -72 3 -133 3 -135 1z"/>
<path d="M1910 1845 l0 -285 160 0 159 0 3 275 c2 151 2 280 0 285 -2 6 -66
10 -163 10 l-159 0 0 -285z"/>
<path d="M1020 1740 l0 -280 108 1 c59 0 101 3 95 6 -19 7 -19 539 0 546 6 3
-36 6 -95 6 l-108 1 0 -280z m30 0 c0 -173 -4 -270 -10 -270 -6 0 -10 97 -10
270 0 173 4 270 10 270 6 0 10 -97 10 -270z m130 0 l0 -270 -55 0 -55 0 0 270
0 270 55 0 55 0 0 -270z"/>
<path d="M1099 1765 c-9 -37 1 -63 25 -61 13 0 23 6 23 13 0 8 -6 9 -18 2 -15
-8 -18 -4 -21 28 -2 26 -5 31 -9 18z"/>
<path d="M1134 1772 c-8 -5 -4 -13 12 -25 13 -10 24 -14 24 -9 0 6 -7 13 -16
16 -8 3 -12 10 -9 16 7 12 4 12 -11 2z"/>
<path d="M3270 1935 l0 -85 30 0 30 0 0 85 0 85 -30 0 -30 0 0 -85z"/>
<path d="M3360 1925 l0 -95 -45 0 c-57 0 -59 -18 -2 -22 l42 -3 3 -172 c1
-104 6 -173 12 -173 6 0 10 68 10 175 l0 175 45 0 c25 0 45 5 45 10 0 6 -20
10 -45 10 l-45 0 0 95 c0 57 -4 95 -10 95 -6 0 -10 -38 -10 -95z"/>
<path d="M3410 1935 l0 -85 30 0 30 0 0 85 0 85 -30 0 -30 0 0 -85z"/>
<path d="M2620 1915 c-10 -12 -10 -15 0 -15 7 0 10 -8 7 -20 -3 -11 -1 -18 3
-15 7 5 11 65 5 65 -2 0 -8 -7 -15 -15z"/>
<path d="M2491 1898 c-1 -18 5 -29 19 -33 11 -3 20 -15 20 -25 0 -10 9 -21 19
-25 10 -3 21 -15 24 -25 3 -13 14 -20 29 -20 13 0 30 -6 37 -12 11 -11 11 -9
0 9 -10 16 -20 21 -36 17 -18 -5 -23 -2 -23 14 0 11 -8 22 -20 25 -13 3 -20
14 -20 30 0 17 -5 24 -17 23 -10 0 -20 9 -24 24 l-7 25 -1 -27z"/>
<path d="M2777 1809 c-4 -16 -11 -20 -26 -16 -14 3 -18 1 -14 -9 7 -19 -24
-29 -43 -14 -11 10 -18 10 -26 2 -8 -8 0 -13 27 -18 28 -5 41 -3 49 8 6 8 19
17 29 21 9 3 17 16 17 27 0 26 -6 26 -13 -1z"/>
<path d="M3270 1620 l0 -160 30 0 30 0 0 160 0 160 -30 0 -30 0 0 -160z"/>
<path d="M3410 1620 l0 -160 30 0 30 0 0 160 0 160 -30 0 -30 0 0 -160z"/>
<path d="M2909 1703 c0 -5 -1 -24 -2 -43 -2 -38 -17 -60 -41 -60 -9 0 -16 -4
-16 -8 0 -5 -10 -14 -22 -20 -23 -10 -23 -11 5 -11 18 -1 27 4 27 15 0 11 6
14 20 9 14 -5 20 -2 20 10 0 8 10 19 22 24 19 7 19 8 3 14 -13 6 -15 10 -6 21
9 10 9 16 1 21 -8 5 -8 11 1 21 8 10 8 14 0 14 -6 0 -11 -3 -12 -7z"/>
<path d="M3995 1678 c-3 -18 -26 -222 -51 -453 -50 -460 -51 -464 -115 -476
-19 -4 -32 -8 -29 -9 14 -8 261 -6 266 1 3 5 -7 9 -21 9 -51 0 -65 16 -65 75
0 58 48 626 53 632 2 1 27 -50 57 -115 99 -219 294 -602 305 -602 7 0 90 164
185 365 95 201 174 364 176 363 6 -6 65 -664 62 -692 l-3 -31 110 -7 c124 -9
197 0 107 13 -63 8 -88 28 -102 80 -8 29 -100 829 -100 869 0 48 -52 -48 -214
-395 -105 -223 -193 -405 -196 -405 -4 0 -31 51 -60 113 -175 366 -341 697
-349 697 -6 0 -13 -15 -16 -32z"/>
<path d="M2615 1570 c-23 -6 -17 -7 30 -7 40 0 53 2 40 8 -24 9 -30 9 -70 -1z"/>
<path d="M6619 1543 c-66 -174 -275 -704 -285 -725 -19 -38 -62 -68 -96 -68
-16 0 -27 -4 -24 -9 7 -11 246 -10 246 1 0 4 -11 8 -24 8 -16 0 -27 7 -31 20
-6 18 31 141 70 234 l15 36 134 0 c95 0 136 -4 143 -12 14 -19 103 -245 103
-263 0 -8 -6 -16 -12 -16 -7 -1 12 -5 42 -9 82 -12 190 -12 190 0 0 6 -13 10
-29 10 -38 0 -77 32 -105 89 -14 26 -83 193 -156 371 -72 178 -136 332 -141
342 -14 26 -28 22 -40 -9z m71 -306 l57 -152 -115 -3 c-63 -1 -117 0 -120 2
-5 5 81 261 100 299 5 10 12 16 15 13 4 -3 32 -75 63 -159z"/>
<path d="M7225 1559 c-2 -8 -6 -185 -7 -395 -3 -414 -3 -414 -59 -414 -16 0
-29 -4 -29 -8 0 -5 59 -9 130 -9 72 0 130 3 130 8 0 5 -13 9 -30 9 -55 0 -67
25 -74 151 -10 204 -15 490 -8 487 4 -2 80 -79 168 -173 185 -194 456 -464
479 -478 9 -5 18 -7 20 -5 1 1 7 181 11 398 l9 395 35 12 c31 10 18 12 -95 12
-131 -1 -140 -2 -74 -13 28 -5 39 -13 47 -34 11 -27 29 -612 19 -612 -3 0
-509 524 -612 634 -37 40 -54 50 -60 35z"/>
<path d="M5225 1541 c54 -11 56 -22 53 -407 -3 -377 -4 -384 -54 -384 -13 0
-24 -4 -24 -8 0 -5 63 -9 140 -9 77 0 140 3 140 8 0 5 -13 9 -28 9 -16 0 -37
6 -48 14 -18 14 -19 31 -22 376 -3 398 -4 394 57 403 14 2 -35 4 -109 4 -74 0
-122 -2 -105 -6z"/>
<path d="M5688 1540 c19 -4 39 -13 45 -19 9 -9 12 -113 12 -375 0 -390 -1
-396 -51 -396 -13 0 -24 -3 -24 -7 0 -5 112 -9 248 -11 204 -3 251 -1 260 11
7 8 15 43 18 78 l6 64 -23 -45 c-31 -59 -72 -74 -187 -67 -95 6 -126 21 -136
68 -3 17 -6 174 -6 349 0 351 -1 343 65 353 17 2 -35 4 -115 4 -92 1 -133 -2
-112 -7z"/>
<path d="M1270 1526 c8 -7 62 -48 120 -90 74 -54 113 -76 134 -76 16 0 27 2
25 4 -2 2 -58 42 -123 90 -75 54 -129 86 -145 86 -22 0 -23 -2 -11 -14z"/>
<path d="M1416 1532 c18 -17 224 -162 229 -162 3 0 5 38 5 85 l0 85 -122 0
c-67 0 -118 -4 -112 -8z"/>
<path d="M1690 1430 l0 -110 -205 0 c-135 0 -205 -4 -205 -10 0 -6 9 -29 20
-50 l20 -40 185 0 185 0 0 -100 c0 -109 -3 -104 63 -115 l37 -6 0 111 0 110
223 0 222 0 -3 50 -4 50 -219 0 -219 0 0 110 0 110 -50 0 -50 0 0 -110z"/>
<path d="M1830 1455 c0 -47 3 -85 8 -85 4 0 61 38 126 85 l119 85 -126 0 -127
0 0 -85z"/>
<path d="M2001 1453 c-104 -75 -118 -88 -96 -91 18 -3 56 19 145 83 66 48 120
89 120 91 0 2 -10 4 -23 4 -13 0 -76 -38 -146 -87z"/>
<path d="M2260 1188 l0 -352 33 31 c68 67 214 112 438 137 254 28 390 106 466
266 25 53 43 174 35 243 l-3 27 -485 0 -484 0 0 -352z m507 304 c0 -9 -5 -20
-10 -24 -17 -10 -35 2 -30 21 6 22 40 25 40 3z m-111 -19 c-3 -3 -1 -12 4 -18
12 -15 -11 -28 -34 -19 -20 8 -8 40 16 41 11 1 18 -1 14 -4z m221 -11 c0 -9
-5 -20 -10 -24 -17 -10 -35 2 -30 21 6 22 40 25 40 3z m-294 -75 c7 -18 -20
-41 -30 -24 -14 22 -11 37 7 37 10 0 20 -6 23 -13z m370 -1 c3 -7 1 -18 -5
-24 -13 -13 -38 7 -31 25 7 17 30 16 36 -1z m-400 -109 c7 -18 -20 -41 -30
-24 -14 22 -11 37 7 37 10 0 20 -6 23 -13z m430 0 c2 -6 -2 -18 -9 -25 -8 -7
-14 -8 -14 -2 0 5 -7 10 -15 10 -13 0 -14 3 -3 15 16 18 34 19 41 2z m-401
-109 c5 -14 -20 -44 -28 -36 -2 3 -6 15 -9 27 -3 15 1 21 15 21 10 0 20 -6 22
-12z m378 -3 c10 -12 10 -15 -4 -15 -9 0 -16 -5 -16 -10 0 -6 -6 -5 -14 2 -15
15 -10 38 9 38 7 0 18 -7 25 -15z m-297 -75 c7 -25 -16 -40 -38 -24 -11 9 -14
14 -6 14 7 0 11 6 8 13 -3 7 3 13 14 13 10 0 20 -7 22 -16z m210 3 c-3 -7 1
-13 8 -13 8 0 5 -5 -6 -14 -13 -10 -22 -10 -30 -2 -17 15 -7 42 14 42 11 0 17
-6 14 -13z m-110 -26 c-3 -5 1 -13 8 -18 11 -7 10 -9 -3 -9 -10 0 -18 -5 -18
-10 0 -6 -6 -6 -13 2 -19 17 -10 44 13 44 10 0 16 -4 13 -9z"/>
<path d="M1262 1433 l3 -68 95 -3 95 -2 -25 20 c-14 10 -58 42 -98 71 l-73 51
3 -69z"/>
<path d="M2125 1430 l-99 -70 102 0 102 0 0 70 c0 39 -1 70 -3 70 -2 0 -48
-31 -102 -70z"/>
<path d="M8065 1490 c-3 -6 1 -7 9 -4 18 7 21 14 7 14 -6 0 -13 -4 -16 -10z"/>
<path d="M8135 1488 c50 -27 60 -85 23 -125 -12 -13 -19 -23 -15 -23 18 0 47
47 47 77 0 35 -36 83 -62 83 -7 0 -4 -6 7 -12z"/>
<path d="M8036 1463 c-6 -14 -5 -15 5 -6 7 7 10 15 7 18 -3 3 -9 -2 -12 -12z"/>
<path d="M8083 1420 c0 -30 2 -43 4 -27 2 15 2 39 0 55 -2 15 -4 2 -4 -28z"/>
<path d="M8122 1440 c0 -14 2 -19 5 -12 2 6 2 18 0 25 -3 6 -5 1 -5 -13z"/>
<path d="M1031 1363 c13 -148 71 -266 183 -369 38 -35 72 -64 77 -64 20 0 7
19 -32 46 -114 79 -196 233 -214 402 -10 90 -22 77 -14 -15z"/>
<path d="M1074 1370 c13 -145 82 -270 205 -372 64 -54 49 -27 -28 50 -106 106
-161 226 -161 352 0 23 -5 40 -11 40 -9 0 -10 -20 -5 -70z"/>
<path d="M1120 1420 c0 -13 7 -20 20 -20 13 0 20 7 20 20 0 13 -7 20 -20 20
-13 0 -20 -7 -20 -20z"/>
<path d="M1190 1420 c0 -13 7 -20 20 -20 13 0 20 7 20 20 0 13 -7 20 -20 20
-13 0 -20 -7 -20 -20z"/>
<path d="M3257 1383 c-8 -77 -59 -176 -124 -241 l-53 -53 37 -49 c21 -28 43
-50 50 -50 18 0 125 108 156 157 38 61 77 183 77 242 l0 51 -69 0 -68 0 -6
-57z"/>
<path d="M8021 1418 c-1 -15 9 -37 22 -50 12 -13 16 -16 8 -6 -7 9 -17 32 -21
50 -7 31 -8 31 -9 6z"/>
<path d="M8125 1390 c10 -11 20 -20 23 -20 3 0 -3 9 -13 20 -10 11 -20 20 -23
20 -3 0 3 -9 13 -20z"/>
<path d="M1214 1372 c-16 -2 -20 -8 -17 -23 3 -10 11 -19 18 -19 6 0 17 -18
24 -39 16 -54 84 -153 127 -186 56 -43 52 -20 -8 40 -56 57 -95 121 -113 190
-8 33 -14 39 -31 37z"/>
<path d="M1120 1350 c0 -32 45 -146 79 -199 39 -60 138 -154 153 -145 7 5 4
12 -8 21 -76 55 -145 147 -179 236 -15 39 -16 50 -6 57 19 11 4 50 -20 50 -12
0 -19 -7 -19 -20z"/>
<path d="M8093 1333 c9 -2 23 -2 30 0 6 3 -1 5 -18 5 -16 0 -22 -2 -12 -5z"/>
<path d="M1180 1307 c0 -8 14 -43 32 -78 31 -63 153 -198 166 -184 4 3 -13 23
-37 43 -50 41 -116 137 -133 194 -11 37 -28 52 -28 25z"/>
<path d="M1375 1160 c22 -25 33 -25 65 0 l25 20 -54 0 c-53 0 -54 0 -36 -20z"/>
<path d="M1505 1139 c-48 -35 -55 -43 -41 -51 18 -10 50 8 121 67 l30 24 -26
1 c-15 0 -51 -18 -84 -41z"/>
<path d="M1940 1176 c0 -2 51 -42 113 -87 61 -45 127 -94 145 -108 l34 -25 -4
24 c-4 29 -231 200 -265 200 -13 0 -23 -2 -23 -4z"/>
<path d="M1585 1124 c-33 -25 -64 -49 -69 -54 -5 -5 21 -18 59 -29 38 -12 70
-20 72 -17 2 2 3 35 1 74 l-3 71 -60 -45z"/>
<path d="M1830 1086 c0 -95 -10 -84 95 -101 103 -17 271 -93 295 -133 8 -14 9
-13 10 9 0 23 -26 45 -195 168 -108 77 -198 141 -200 141 -3 0 -5 -38 -5 -84z"/>
<path d="M2121 1109 c46 -34 90 -66 97 -72 9 -7 12 6 12 62 l0 71 -97 0 -97 0
85 -61z"/>
<path d="M1371 1001 c-68 -89 -70 -84 29 -130 71 -34 147 -52 320 -75 63 -8
125 -18 138 -22 22 -6 22 -5 22 95 0 55 -2 101 -5 101 -3 0 -49 5 -103 10
-117 13 -232 43 -291 76 -24 13 -45 24 -47 24 -2 0 -30 -36 -63 -79z m278 -30
c8 -5 11 -16 8 -24 -4 -10 2 -17 14 -20 28 -8 22 -51 -7 -55 -12 -2 -24 -11
-27 -21 -7 -29 -57 -16 -57 15 0 15 -6 24 -16 24 -11 0 -14 8 -12 28 2 21 8
27 26 25 16 -2 22 2 22 17 0 21 24 27 49 11z"/>
<path d="M3025 1059 c-61 -39 -182 -69 -337 -84 l-68 -7 0 -32 0 -32 132 18
c144 19 220 38 283 70 63 32 67 36 48 64 -18 28 -19 28 -58 3z"/>
<path d="M3075 934 c-86 -40 -164 -60 -286 -74 -156 -18 -164 -21 -167 -58 -4
-35 -2 -36 48 -22 19 5 91 17 159 25 122 15 235 46 312 85 43 22 48 39 22 62
-16 14 -25 12 -88 -18z"/>
<path d="M1900 859 c0 -96 1 -101 22 -107 96 -25 260 -140 291 -204 16 -32 17
-29 17 104 l0 138 -35 38 c-42 47 -129 95 -211 116 -34 9 -67 16 -73 16 -7 0
-11 -34 -11 -101z m216 0 c19 -22 19 -22 -3 -10 -66 34 -125 -48 -71 -99 12
-11 16 -20 9 -20 -22 0 -61 48 -61 76 0 64 85 99 126 53z m21 -101 c-18 -12
-27 -10 -27 6 0 8 6 16 13 19 17 6 29 -16 14 -25z"/>
<path d="M2387 842 c-22 -24 -21 -55 1 -75 38 -35 102 -12 102 37 0 49 -70 75
-103 38z"/>
<path d="M2294 828 l-19 -23 23 19 c12 11 22 21 22 23 0 8 -8 2 -26 -19z"/>
<path d="M2335 618 l-40 -43 43 40 c39 36 47 45 39 45 -2 0 -21 -19 -42 -42z"/>
<path d="M2260 520 c0 -11 2 -20 4 -20 2 0 6 9 9 20 3 11 1 20 -4 20 -5 0 -9
-9 -9 -20z"/>
</g>
</svg>
